<svg width="25" height="26" viewBox="0 0 25 26" fill="none" xmlns="http://www.w3.org/2000/svg">
<path d="M8.073 2.1665V5.4165H7.29175C7.02091 5.4165 6.7605 5.42734 6.5105 5.47067V2.1665C6.5105 1.72234 6.86466 1.354 7.29175 1.354C7.71883 1.354 8.073 1.72234 8.073 2.1665Z" fill="#202020"/>
<path d="M17.7083 5.4707H7.29158C7.02075 5.4707 6.76033 5.48154 6.51033 5.52487C3.82284 5.84987 2.08325 7.91904 2.08325 10.8874V18.4707C2.08325 21.7207 4.16659 23.8874 7.29158 23.8874H17.7083C20.8333 23.8874 22.9166 21.7207 22.9166 18.4707V10.8874C22.9166 7.63737 20.8333 5.4707 17.7083 5.4707ZM8.20825 17.3874C6.77075 17.3874 5.60409 16.174 5.60409 14.679C5.60409 13.184 6.77075 11.9707 8.20825 11.9707C9.64575 11.9707 10.8124 13.184 10.8124 14.679C10.8124 16.174 9.64575 17.3874 8.20825 17.3874ZM14.9791 17.6582H14.4583C14.0312 17.6582 13.677 17.2899 13.677 16.8457C13.677 16.4015 14.0312 16.0332 14.4583 16.0332H14.9791C15.4062 16.0332 15.7603 16.4015 15.7603 16.8457C15.7603 17.2899 15.4062 17.6582 14.9791 17.6582ZM18.6249 17.6582H18.1041C17.677 17.6582 17.3228 17.2899 17.3228 16.8457C17.3228 16.4015 17.677 16.0332 18.1041 16.0332H18.6249C19.052 16.0332 19.4062 16.4015 19.4062 16.8457C19.4062 17.2899 19.052 17.6582 18.6249 17.6582ZM18.6249 13.3249H14.4583C14.0312 13.3249 13.677 12.9565 13.677 12.5124C13.677 12.0682 14.0312 11.6999 14.4583 11.6999H18.6249C19.052 11.6999 19.4062 12.0682 19.4062 12.5124C19.4062 12.9565 19.052 13.3249 18.6249 13.3249Z" fill="#202020"/>
</svg>
